<?xml version="1.0" encoding="UTF-8" standalone="no"?>
<!DOCTYPE svg PUBLIC "-//W3C//DTD SVG 1.1//EN" "http://www.w3.org/Graphics/SVG/1.1/DTD/svg11.dtd">
<!-- Created with Vectornator (http://vectornator.io/) -->
<svg height="100%" stroke-miterlimit="10" style="fill-rule:nonzero;clip-rule:evenodd;stroke-linecap:round;stroke-linejoin:round;" version="1.1" viewBox="0 0 140.87 57.3225" width="100%" xml:space="preserve" xmlns="http://www.w3.org/2000/svg" xmlns:vectornator="http://vectornator.io" xmlns:xlink="http://www.w3.org/1999/xlink">
<defs/>
<g id="Layer-1" vectornator:layerName="Layer 1">
<g opacity="1" vectornator:layerName="Group 1">
<g opacity="1" vectornator:layerName="Group 2">
<path d="M131.591 54.2138L132.976 54.2138L132.976 57.3225L131.591 57.3225L131.591 54.2138Z" fill="#000409" fill-rule="nonzero" opacity="0.978725" stroke="none" vectornator:layerName="Rectangle 13"/>
<path d="M131.591 44.2533L132.976 44.2533L132.976 51.6655L131.591 51.6655L131.591 44.2533Z" fill="#000409" fill-rule="nonzero" opacity="1" stroke="none" vectornator:layerName="Rectangle 5"/>
<path d="M127.667 48.0549L131.217 48.0549L131.217 49.3948L127.667 49.3948L127.667 48.0549Z" fill="#000409" fill-rule="nonzero" opacity="1" stroke="none" vectornator:layerName="Rectangle 6"/>
<path d="M139.547 28.6612L140.87 28.6612L140.87 49.3948L139.547 49.3948L139.547 28.6612Z" fill="#000409" fill-rule="nonzero" opacity="1" stroke="none" vectornator:layerName="Rectangle 1"/>
<path d="M133.448 48.0549L139.547 48.0549L139.547 49.3948L133.448 49.3948L133.448 48.0549Z" fill="#000409" fill-rule="nonzero" opacity="1" stroke="none" vectornator:layerName="Rectangle 2"/>
<path d="M135.649 44.2533L136.977 44.2533L136.977 47.6911L135.649 47.6911L135.649 44.2533Z" fill="#000409" fill-rule="nonzero" opacity="0.969035" stroke="none" vectornator:layerName="Rectangle 3"/>
<path d="M131.591 44.2533L136.977 44.2533L136.977 45.5811L131.591 45.5811L131.591 44.2533Z" fill="#000409" fill-rule="nonzero" opacity="0.974849" stroke="none" vectornator:layerName="Rectangle 4"/>
<path d="M127.667 48.0549L129.025 48.0549L129.025 53.5315L127.667 53.5315L127.667 48.0549Z" fill="#000409" fill-rule="nonzero" opacity="1" stroke="none" vectornator:layerName="Rectangle 7"/>
<path d="M127.667 52.0769L135.124 52.0769L135.124 53.6002L127.667 53.6002L127.667 52.0769Z" fill="#000409" fill-rule="nonzero" opacity="1" stroke="none" vectornator:layerName="Rectangle 8"/>
<path d="M135.649 49.8779L136.977 49.8779L136.977 57.3225L135.649 57.3225L135.649 49.8779Z" fill="#000409" fill-rule="nonzero" opacity="1" stroke="none" vectornator:layerName="Rectangle 9"/>
<path d="M137.414 52.0769L140.87 52.0769L140.87 53.6002L137.414 53.6002L137.414 52.0769Z" fill="#000409" fill-rule="nonzero" opacity="1" stroke="none" vectornator:layerName="Rectangle 10"/>
<path d="M139.547 52.0769L140.87 52.0769L140.87 57.3225L139.547 57.3225L139.547 52.0769Z" fill="#000409" fill-rule="nonzero" opacity="1" stroke="none" vectornator:layerName="Rectangle 11"/>
<path d="M136.498 56.1271L140.208 56.1271L140.208 57.3225L136.498 57.3225L136.498 56.1271Z" fill="#000409" fill-rule="nonzero" opacity="1" stroke="none" vectornator:layerName="Rectangle 12"/>
<path d="M7.87992 56.1271L131.591 56.1271L131.591 57.3225L7.87992 57.3225L7.87992 56.1271Z" fill="#000409" fill-rule="nonzero" opacity="0.978725" stroke="none" vectornator:layerName="Rectangle 14"/>
<path d="M7.87992 53.6002L9.17632 53.6002L9.17632 56.7248L7.87992 56.7248L7.87992 53.6002Z" fill="#000409" fill-rule="nonzero" opacity="0.978725" stroke="none" vectornator:layerName="Rectangle 15"/>
<path d="M5.75539 52.0769L13.1552 52.0769L13.1552 53.5315L5.75539 53.5315L5.75539 52.0769Z" fill="#000409" fill-rule="nonzero" opacity="0.978725" stroke="none" vectornator:layerName="Rectangle 16"/>
<path d="M11.8485 48.0549L13.1552 48.0549L13.1552 52.8042L11.8485 52.8042L11.8485 48.0549Z" fill="#000409" fill-rule="nonzero" opacity="0.978725" stroke="none" vectornator:layerName="Rectangle 17"/>
<path d="M9.45528 48.0549L12.5018 48.0549L12.5018 49.3948L9.45528 49.3948L9.45528 48.0549Z" fill="#000409" fill-rule="nonzero" opacity="0.978725" stroke="none" vectornator:layerName="Rectangle 18"/>
<path d="M3.97885 49.8779L5.27088 49.8779L5.27088 57.3225L3.97885 57.3225L3.97885 49.8779Z" fill="#000409" fill-rule="nonzero" opacity="0.978725" stroke="none" vectornator:layerName="Rectangle 19"/>
<path d="M0 56.1271L3.97885 56.1271L3.97885 57.3225L0 57.3225L0 56.1271Z" fill="#000409" fill-rule="nonzero" opacity="0.978725" stroke="none" vectornator:layerName="Rectangle 20"/>
<path d="M0 52.0769L1.24798 52.0769L1.24798 57.3225L0 57.3225L0 52.0769Z" fill="#000409" fill-rule="nonzero" opacity="0.978725" stroke="none" vectornator:layerName="Rectangle 21"/>
<path d="M0 52.0769L3.46498 52.0769L3.46498 53.5315L0 53.5315L0 52.0769Z" fill="#000409" fill-rule="nonzero" opacity="0.978725" stroke="none" vectornator:layerName="Rectangle 22"/>
<path d="M0 48.0549L7.48527 48.0549L7.48527 49.3948L0 49.3948L0 48.0549Z" fill="#000409" fill-rule="nonzero" opacity="0.978725" stroke="none" vectornator:layerName="Rectangle 23"/>
<path d="M3.97885 44.2533L5.27088 44.2533L5.27088 47.6911L3.97885 47.6911L3.97885 44.2533Z" fill="#000409" fill-rule="nonzero" opacity="0.978725" stroke="none" vectornator:layerName="Rectangle 24"/>
<path d="M3.97885 44.2533L9.17632 44.2533L9.17632 45.5811L3.97885 45.5811L3.97885 44.2533Z" fill="#000409" fill-rule="nonzero" opacity="0.978725" stroke="none" vectornator:layerName="Rectangle 25"/>
<path d="M7.87992 45.5811L9.17632 45.5811L9.17632 51.6655L7.87992 51.6655L7.87992 45.5811Z" fill="#000409" fill-rule="nonzero" opacity="0.978725" stroke="none" vectornator:layerName="Rectangle 26"/>
<path d="M0 28.6612L1.24798 28.6612L1.24798 48.7248L0 48.7248L0 28.6612Z" fill="#000409" fill-rule="nonzero" opacity="0.978725" stroke="none" vectornator:layerName="Rectangle 27"/>
</g>
<g opacity="1" vectornator:layerName="Group 1">
<path d="M131.591 3.10864L132.976 3.10864L132.976 0L131.591 0L131.591 3.10864Z" fill="#000409" fill-rule="nonzero" opacity="0.978725" stroke="none" vectornator:layerName="Rectangle 13"/>
<path d="M131.591 13.0692L132.976 13.0692L132.976 5.65701L131.591 5.65701L131.591 13.0692Z" fill="#000409" fill-rule="nonzero" opacity="1" stroke="none" vectornator:layerName="Rectangle 5"/>
<path d="M127.667 9.26759L131.217 9.26759L131.217 7.92769L127.667 7.92769L127.667 9.26759Z" fill="#000409" fill-rule="nonzero" opacity="1" stroke="none" vectornator:layerName="Rectangle 6"/>
<path d="M139.547 28.6612L140.87 28.6612L140.87 7.92769L139.547 7.92769L139.547 28.6612Z" fill="#000409" fill-rule="nonzero" opacity="1" stroke="none" vectornator:layerName="Rectangle 1"/>
<path d="M133.448 9.26759L139.547 9.26759L139.547 7.92769L133.448 7.92769L133.448 9.26759Z" fill="#000409" fill-rule="nonzero" opacity="1" stroke="none" vectornator:layerName="Rectangle 2"/>
<path d="M135.649 13.0692L136.977 13.0692L136.977 9.63139L135.649 9.63139L135.649 13.0692Z" fill="#000409" fill-rule="nonzero" opacity="0.969035" stroke="none" vectornator:layerName="Rectangle 3"/>
<path d="M131.591 13.0692L136.977 13.0692L136.977 11.7414L131.591 11.7414L131.591 13.0692Z" fill="#000409" fill-rule="nonzero" opacity="0.974849" stroke="none" vectornator:layerName="Rectangle 4"/>
<path d="M127.667 9.26759L129.025 9.26759L129.025 3.79094L127.667 3.79094L127.667 9.26759Z" fill="#000409" fill-rule="nonzero" opacity="1" stroke="none" vectornator:layerName="Rectangle 7"/>
<path d="M127.667 5.24559L135.124 5.24559L135.124 3.72228L127.667 3.72228L127.667 5.24559Z" fill="#000409" fill-rule="nonzero" opacity="1" stroke="none" vectornator:layerName="Rectangle 8"/>
<path d="M135.649 7.44455L136.977 7.44455L136.977 0L135.649 0L135.649 7.44455Z" fill="#000409" fill-rule="nonzero" opacity="1" stroke="none" vectornator:layerName="Rectangle 9"/>
<path d="M137.414 5.24559L140.87 5.24559L140.87 3.72228L137.414 3.72228L137.414 5.24559Z" fill="#000409" fill-rule="nonzero" opacity="1" stroke="none" vectornator:layerName="Rectangle 10"/>
<path d="M139.547 5.24559L140.87 5.24559L140.87 0L139.547 0L139.547 5.24559Z" fill="#000409" fill-rule="nonzero" opacity="1" stroke="none" vectornator:layerName="Rectangle 11"/>
<path d="M136.498 1.19543L140.208 1.19543L140.208 0L136.498 0L136.498 1.19543Z" fill="#000409" fill-rule="nonzero" opacity="1" stroke="none" vectornator:layerName="Rectangle 12"/>
<path d="M7.87992 1.19543L131.591 1.19543L131.591 0L7.87992 0L7.87992 1.19543Z" fill="#000409" fill-rule="nonzero" opacity="0.978725" stroke="none" vectornator:layerName="Rectangle 14"/>
<path d="M7.87992 3.72228L9.17632 3.72228L9.17632 0.597713L7.87992 0.597713L7.87992 3.72228Z" fill="#000409" fill-rule="nonzero" opacity="0.978725" stroke="none" vectornator:layerName="Rectangle 15"/>
<path d="M5.75539 5.24559L13.1552 5.24559L13.1552 3.79094L5.75539 3.79094L5.75539 5.24559Z" fill="#000409" fill-rule="nonzero" opacity="0.978725" stroke="none" vectornator:layerName="Rectangle 16"/>
<path d="M11.8485 9.26759L13.1552 9.26759L13.1552 4.51827L11.8485 4.51827L11.8485 9.26759Z" fill="#000409" fill-rule="nonzero" opacity="0.978725" stroke="none" vectornator:layerName="Rectangle 17"/>
<path d="M9.45528 9.26759L12.5018 9.26759L12.5018 7.92769L9.45528 7.92769L9.45528 9.26759Z" fill="#000409" fill-rule="nonzero" opacity="0.978725" stroke="none" vectornator:layerName="Rectangle 18"/>
<path d="M3.97885 7.44455L5.27088 7.44455L5.27088 0L3.97885 0L3.97885 7.44455Z" fill="#000409" fill-rule="nonzero" opacity="0.978725" stroke="none" vectornator:layerName="Rectangle 19"/>
<path d="M0 1.19543L3.97885 1.19543L3.97885 0L0 0L0 1.19543Z" fill="#000409" fill-rule="nonzero" opacity="0.978725" stroke="none" vectornator:layerName="Rectangle 20"/>
<path d="M0 5.24559L1.24798 5.24559L1.24798 0L0 0L0 5.24559Z" fill="#000409" fill-rule="nonzero" opacity="0.978725" stroke="none" vectornator:layerName="Rectangle 21"/>
<path d="M0 5.24559L3.46498 5.24559L3.46498 3.79094L0 3.79094L0 5.24559Z" fill="#000409" fill-rule="nonzero" opacity="0.978725" stroke="none" vectornator:layerName="Rectangle 22"/>
<path d="M0 9.26759L7.48527 9.26759L7.48527 7.92769L0 7.92769L0 9.26759Z" fill="#000409" fill-rule="nonzero" opacity="0.978725" stroke="none" vectornator:layerName="Rectangle 23"/>
<path d="M3.97885 13.0692L5.27088 13.0692L5.27088 9.63139L3.97885 9.63139L3.97885 13.0692Z" fill="#000409" fill-rule="nonzero" opacity="0.978725" stroke="none" vectornator:layerName="Rectangle 24"/>
<path d="M3.97885 13.0692L9.17632 13.0692L9.17632 11.7414L3.97885 11.7414L3.97885 13.0692Z" fill="#000409" fill-rule="nonzero" opacity="0.978725" stroke="none" vectornator:layerName="Rectangle 25"/>
<path d="M7.87992 11.7414L9.17632 11.7414L9.17632 5.65701L7.87992 5.65701L7.87992 11.7414Z" fill="#000409" fill-rule="nonzero" opacity="0.978725" stroke="none" vectornator:layerName="Rectangle 26"/>
<path d="M0 28.6612L1.24798 28.6612L1.24798 8.59764L0 8.59764L0 28.6612Z" fill="#000409" fill-rule="nonzero" opacity="0.978725" stroke="none" vectornator:layerName="Rectangle 27"/>
</g>
</g>
</g>
<g id="Layer-2" vectornator:layerName="Layer 2"/>
</svg>
