<?xml version="1.0" encoding="UTF-8" standalone="no"?>
<!DOCTYPE svg PUBLIC "-//W3C//DTD SVG 1.1//EN" "http://www.w3.org/Graphics/SVG/1.1/DTD/svg11.dtd">
<!-- Created with Vectornator (http://vectornator.io/) -->
<svg height="100%" stroke-miterlimit="10" style="fill-rule:nonzero;clip-rule:evenodd;stroke-linecap:round;stroke-linejoin:round;" version="1.1" viewBox="0 0 595 693" width="100%" xml:space="preserve" xmlns="http://www.w3.org/2000/svg" xmlns:vectornator="http://vectornator.io" xmlns:xlink="http://www.w3.org/1999/xlink">
<defs/>
<clipPath id="ArtboardFrame">
<rect height="693" width="595" x="0" y="0"/>
</clipPath>
<g clip-path="url(#ArtboardFrame)" id="Layer-1" vectornator:layerName="Layer 1">
<path d="M58.8696 188.798C23.17 205.885 54.7794 232.932 74.5508 236.131C115.319 242.726 156.706 244.685 197.598 250.439C235.571 255.781 233.798 268.446 231.558 305.432C231.155 312.088 228.943 315.477 222.704 316.028C184.12 319.433 145.285 320.012 106.827 324.645C64.2207 329.778 5.36488 361.27 0.959463 411.103C-6.99194 501.046 34.5705 543.118 122.226 555.764C146.574 559.277 193.219 553.399 215.646 577.237C239.364 602.447 233.925 644.566 238.79 679.036C239.586 684.678 241.295 690.577 248.112 691.101C268.209 692.645 288.406 693.39 308.552 692.796C315.011 692.606 321.643 691.474 327.524 688.762C350.127 678.334 344.96 640.793 346.023 615.663C350.512 509.492 340.307 401.264 361.858 297.261C365.046 281.875 375.077 239.615 394.889 231.045C419.296 220.487 447.682 223.114 472.807 214.454C480.391 211.84 495.208 194.427 495.777 184.222C496.627 169.009 496.631 153.399 493.082 138.592C490.175 126.459 484.848 114.414 476.785 104.969C450.262 73.9007 420.239 46.018 390.351 18.2575C380.251 8.87574 360.271-13.3085 359.882 11.0245C359.493 35.3575 415.69 96.0976 396.839 137.603C387.764 157.585 364.707 157.699 347.05 159.076C283.342 164.043 219.239 163.936 155.718 170.943C116.464 175.273 94.5692 171.71 58.8696 188.798ZM177.148 354.594C189.288 354.01 201.456 355.062 213.593 355.725C239.05 357.114 232.741 382.992 233.483 404.039C234.234 425.365 235.002 446.696 235.151 468.035C235.45 510.951 241.209 520.096 198.194 521.435C178.354 522.053 158.475 521.736 138.651 520.729C125.411 520.056 115.968 518.698 105.8 510.557C83.5043 492.706 82.6015 462.38 82.0603 435.966C80.702 369.672 120.404 357.325 177.148 354.594Z" fill="#000000" fill-rule="nonzero" opacity="1" stroke="none" vectornator:layerName="Curve 1"/>
</g>
<g id="Layer-2" vectornator:layerName="Layer 2"/>
</svg>
