<?xml version="1.0" encoding="UTF-8" standalone="no"?>
<!DOCTYPE svg PUBLIC "-//W3C//DTD SVG 1.1//EN" "http://www.w3.org/Graphics/SVG/1.1/DTD/svg11.dtd">
<!-- Created with Vectornator (http://vectornator.io/) -->
<svg height="100%" stroke-miterlimit="10" style="fill-rule:nonzero;clip-rule:evenodd;stroke-linecap:round;stroke-linejoin:round;" version="1.1" viewBox="0 0 595 693" width="100%" xml:space="preserve" xmlns="http://www.w3.org/2000/svg" xmlns:vectornator="http://vectornator.io" xmlns:xlink="http://www.w3.org/1999/xlink">
<defs/>
<g id="Layer-1" vectornator:layerName="Layer 1">
<path d="M112.973 18.2873C49.9558 38.2216-13.9585 111.293 5.44631 222.25C7.67142 234.973 11.2432 247.596 16.5365 259.378C72.1325 383.124 244.526 361.929 350.619 370.452C361.112 371.295 373.435 369.856 381.617 376.479C387.787 381.474 386.239 391.808 386.783 399.727C389.834 444.149 389.75 488.74 392.38 533.188C392.624 537.323 393.28 541.681 395.393 545.243C402.217 556.742 425.032 558.948 433.417 559.708C458.494 561.983 483.734 562.598 508.913 562.291C546.618 561.832 588.891 566.993 591.28 521.564C593.692 475.691 594.503 429.734 594.724 383.798C595.22 280.617 595.189 177.422 593.432 74.2548C593.035 50.9465 589.988 27.7588 588.266 4.51073C450.826-2.61051 175.99-1.6469 112.973 18.2873ZM316.178 59.6172C366.023 58.493 383.519 47.2972 387.644 98.3639C389.842 125.579 391.087 152.872 391.949 180.163C392.81 207.417 393.342 234.699 392.81 261.961C392.2 293.241 392.021 297.868 363.535 298.986C303.724 301.332 228.96 310.401 178.196 269.926C151.932 248.985 149.081 230.361 149.782 196.953C152.448 70.0101 199.796 62.242 316.178 59.6172Z" fill="#000000" fill-rule="nonzero" opacity="1" stroke="none" vectornator:layerName="Curve 1"/>
</g>
</svg>
