<svg width="24" height="25" viewBox="0 0 24 25" fill="none" xmlns="http://www.w3.org/2000/svg">
<path d="M4.27209 20.7421L10.8686 14.1455C11.2646 13.7495 11.4627 13.5515 11.691 13.4773C11.8918 13.4121 12.1082 13.4121 12.309 13.4773C12.5373 13.5515 12.7354 13.7495 13.1314 14.1455L19.6839 20.6981M14 15.0142L16.8686 12.1455C17.2646 11.7495 17.4627 11.5515 17.691 11.4773C17.8918 11.4121 18.1082 11.4121 18.309 11.4773C18.5373 11.5515 18.7354 11.7495 19.1314 12.1455L22 15.0142M10 9.01416C10 10.1187 9.10457 11.0142 8 11.0142C6.89543 11.0142 6 10.1187 6 9.01416C6 7.90959 6.89543 7.01416 8 7.01416C9.10457 7.01416 10 7.90959 10 9.01416ZM6.8 21.0142H17.2C18.8802 21.0142 19.7202 21.0142 20.362 20.6872C20.9265 20.3996 21.3854 19.9406 21.673 19.3761C22 18.7344 22 17.8943 22 16.2142V7.81416C22 6.134 22 5.29392 21.673 4.65219C21.3854 4.0877 20.9265 3.62876 20.362 3.34114C19.7202 3.01416 18.8802 3.01416 17.2 3.01416H6.8C5.11984 3.01416 4.27976 3.01416 3.63803 3.34114C3.07354 3.62876 2.6146 4.0877 2.32698 4.65219C2 5.29392 2 6.134 2 7.81416V16.2142C2 17.8943 2 18.7344 2.32698 19.3761C2.6146 19.9406 3.07354 20.3996 3.63803 20.6872C4.27976 21.0142 5.11984 21.0142 6.8 21.0142Z" stroke="black" stroke-width="2" stroke-linecap="round" stroke-linejoin="round"/>
</svg>
