<svg width="30" height="26" viewBox="0 0 30 26" fill="none" xmlns="http://www.w3.org/2000/svg">
<path d="M15.0003 23.6666H5.93366C4.44019 23.6666 3.69345 23.6666 3.12302 23.376C2.62125 23.1203 2.2133 22.7124 1.95764 22.2106C1.66699 21.6402 1.66699 20.8935 1.66699 19.4V6.59998C1.66699 5.10651 1.66699 4.35977 1.95764 3.78934C2.2133 3.28757 2.62125 2.87962 3.12302 2.62396C3.69345 2.33331 4.44019 2.33331 5.93366 2.33331H6.46699C9.45394 2.33331 10.9474 2.33331 12.0883 2.91461C13.0918 3.42594 13.9077 4.24183 14.419 5.24536C15.0003 6.38623 15.0003 7.8797 15.0003 10.8666M15.0003 23.6666V10.8666M15.0003 23.6666H24.067C25.5605 23.6666 26.3072 23.6666 26.8776 23.376C27.3794 23.1203 27.7873 22.7124 28.043 22.2106C28.3337 21.6402 28.3337 20.8935 28.3337 19.4V6.59998C28.3337 5.10651 28.3337 4.35977 28.043 3.78934C27.7873 3.28757 27.3794 2.87962 26.8776 2.62396C26.3072 2.33331 25.5605 2.33331 24.067 2.33331H23.5337C20.5467 2.33331 19.0532 2.33331 17.9124 2.91461C16.9088 3.42594 16.0929 4.24183 15.5816 5.24536C15.0003 6.38623 15.0003 7.8797 15.0003 10.8666" stroke="#344054" stroke-width="3" stroke-linecap="round" stroke-linejoin="round"/>
</svg>
